Coordinates
version=1
nRows=8
nColumns=34
inDegrees=yes

Units are S.I. units (second, meters, Newtons, ...)
If the header above contains a line with 'inDegrees', this indicates whether rotational values are in degrees (yes) or radians (no).

endheader
time	pelvis_tilt	pelvis_list	pelvis_rotation	pelvis_tx	pelvis_ty	pelvis_tz	hip_flexion_r	hip_adduction_r	hip_rotation_r	knee_angle_r	ankle_angle_r	subtalar_angle_r	mtp_angle_r	hip_flexion_l	hip_adduction_l	hip_rotation_l	knee_angle_l	ankle_angle_l	subtalar_angle_l	mtp_angle_l	lumbar_extension	lumbar_bending	lumbar_rotation	arm_flex_r	arm_add_r	arm_rot_r	elbow_flex_r	pro_sup_r	arm_flex_l	arm_add_l	arm_rot_l	elbow_flex_l	pro_sup_l
      6.23333330	      7.14435971	    -28.81514795	    -40.48439925	      3.51104770	      1.03287183	      7.53012961	      7.95335202	     20.24235937	     -6.89022495	     12.51371729	      5.46954889	     11.94703056	      0.00000000	     14.59189098	      7.49690977	    -28.72710204	     36.05869877	      2.93037379	     -8.33819909	      0.00000000	    -14.45218163	     -5.31440211	      8.12944127	     20.36132515	      8.56631304	     15.73234247	     31.58830792	    119.58875946	     12.02433004	     12.07370956	     32.79751901	     25.15073379	    108.96679751
      6.25000000	      7.21979059	    -29.07264199	    -39.93662474	      3.51735155	      1.03255210	      7.53055651	      9.09416428	     19.65288664	     -9.42071057	     15.57520072	      7.43968971	     13.31042183	      0.00000000	     14.27849132	      7.04516060	    -29.30403412	     35.86411140	      4.26353226	     -4.81397109	      0.00000000	    -14.57953129	     -4.24248502	      8.35401773	     20.09192434	      8.44441932	     15.41715910	     31.42489514	    119.74817918	     12.15191276	     12.97521686	     32.04649796	     24.51903575	    109.94620132
      6.26666670	      7.30104479	    -29.08355450	    -39.57652495	      3.52212175	      1.03270561	      7.53239933	      9.89256876	     19.20794022	    -10.67284360	     17.71038767	      8.69728087	     13.68236652	      0.00000000	     14.02402864	      6.89285907	    -28.46033350	     35.39365959	      5.71835570	     -1.42207551	      0.00000000	    -14.65803545	     -3.47869063	      9.30879516	     19.62792554	      8.03412285	     15.68831185	     31.13067799	    119.74817918	     12.42736769	     13.74203955	     31.29872097	     23.69430131	    110.55807093
      6.28333330	      7.32478133	    -29.00297277	    -39.40308681	      3.52540410	      1.03274107	      7.53487001	     10.43534793	     18.95481362	    -11.14515848	     19.14586594	      9.77272966	     13.48540677	      0.00000000	     13.95054872	      6.90530937	    -26.70713207	     34.72798214	      7.03292087	      1.01275622	      0.00000000	    -14.84266737	     -2.90724534	     10.64129456	     19.27670136	      7.39972856	     15.92826410	     30.92155236	    119.74817918	     13.06651066	     14.52739362	     30.53532738	     22.76464493	    110.65228762
      6.30000000	      7.17750744	    -29.07835968	    -39.68357402	      3.52835612	      1.03250525	      7.53736396	     10.91079888	     18.94089229	    -11.46019194	     20.50323019	     10.56828576	     13.48995311	      0.00000000	     13.80184955	      6.61889527	    -25.25024279	     33.67945052	      7.75425781	      2.45944405	      0.00000000	    -15.09411660	     -2.22278676	     11.75423213	     19.13915663	      6.79829519	     15.97849321	     30.67908705	    119.74817918	     13.63012830	     15.17612257	     29.82577102	     22.30816914	    110.60203927
      6.31666670	      7.24198296	    -28.60454882	    -39.95154766	      3.53074941	      1.03291081	      7.54124475	     11.60191474	     18.24285191	    -12.44409039	     22.12977758	     11.72686770	     14.76546583	      0.00000000	     13.79043991	      6.73462221	    -23.68678112	     32.50800674	      7.08433473	      4.27467078	      0.00000000	    -15.08334376	     -2.46813504	     12.61788420	     19.07132001	      6.31643009	     16.56352991	     30.67345663	    119.74817918	     13.89048523	     15.85477045	     27.26959567	     21.73067592	    110.26656148
      6.33333330	      7.42119200	    -28.13333872	    -39.83288214	      3.53240618	      1.03414232	      7.54449916	     11.81166374	     17.84530841	    -12.20954860	     22.64136983	     12.20775465	     14.50036082	      0.00000000	     13.79696240	      6.85131974	    -21.67506113	     31.40881280	      6.51068100	      5.68374826	      0.00000000	    -15.12900468	     -2.62592919	     13.26691880	     19.18860185	      5.89707404	     17.09460424	     30.50419144	    119.74817918	     14.56345585	     16.12820199	     26.74991180	     20.74784367	    110.16375631
      6.35000000	      7.91075696	    -27.52355506	    -39.34366962	      3.53261801	      1.03514115	      7.54726717	     12.09421551	     17.15026295	    -12.17414930	     23.32762586	     12.61993080	     14.05763052	      0.00000000	     13.65524862	      7.03281505	    -20.80823161	     30.65485131	      5.40720582	      7.01396620	      0.00000000	    -15.39157752	     -3.12121918	     12.94933653	     19.69094354	      5.59767400	     18.22090239	     30.36528974	    119.74817918	     15.71277883	     16.36925692	     26.19846016	     19.59810710	    109.98683356
